HIERARCHY
ROOT joint_0
{
	OFFSET 0.000000 0.000000 0.000000
	CHANNELS 6 Xposition Yposition Zposition Zrotation Yrotation Xrotation 
	JOINT joint_1
	{
		OFFSET 6.579712 -2.778931 100.531982
		CHANNELS 3 Zrotation Yrotation Xrotation
		JOINT joint_2
		{
			OFFSET -3.313232 -1.302856 91.974976
			CHANNELS 3 Zrotation Yrotation Xrotation
			JOINT joint_3
			{
				OFFSET -3.421509 -1.641846 91.864014
				CHANNELS 3 Zrotation Yrotation Xrotation
				JOINT joint_4
				{
					OFFSET 7.697388 -4.642578 123.278931
					CHANNELS 3 Zrotation Yrotation Xrotation
					JOINT joint_5
					{
						OFFSET 24.842529 -5.941528 79.695068
						CHANNELS 3 Zrotation Yrotation Xrotation
						End Site
						{
							OFFSET 0.000000 0.000000 0.000000
						}
					}
				}
				JOINT joint_6
				{
					OFFSET -0.159668 -29.112976 68.364014
					CHANNELS 3 Zrotation Yrotation Xrotation
					JOINT joint_7
					{
						OFFSET -18.356079 -115.987061 -20.069092
						CHANNELS 3 Zrotation Yrotation Xrotation
						JOINT joint_8
						{
							OFFSET 31.719482 -11.733276 -267.170898
							CHANNELS 3 Zrotation Yrotation Xrotation
							JOINT joint_9
							{
								OFFSET 29.329956 -5.879517 -234.654053
								CHANNELS 3 Zrotation Yrotation Xrotation
								End Site
								{
									OFFSET 0.000000 0.000000 0.000000
								}
							}
						}
					}
				}
				JOINT joint_10
				{
					OFFSET 8.802979 23.897949 69.798950
					CHANNELS 3 Zrotation Yrotation Xrotation
					JOINT joint_11
					{
						OFFSET 21.159058 115.524292 -19.981934
						CHANNELS 3 Zrotation Yrotation Xrotation
						JOINT joint_12
						{
							OFFSET 18.809204 5.403442 -268.593018
							CHANNELS 3 Zrotation Yrotation Xrotation
							JOINT joint_13
							{
								OFFSET 20.807861 0.421265 -235.639038
								CHANNELS 3 Zrotation Yrotation Xrotation
								End Site
								{
									OFFSET 0.000000 0.000000 0.000000
								}
							}
						}
					}
				}
			}
		}
	}
	JOINT joint_14
	{
		OFFSET -9.713379 -79.513916 -99.348022
		CHANNELS 3 Zrotation Yrotation Xrotation
		JOINT joint_15
		{
			OFFSET -40.607788 -6.518372 -502.938019
			CHANNELS 3 Zrotation Yrotation Xrotation
			JOINT joint_16
			{
				OFFSET -19.807617 -7.437378 -399.590012
				CHANNELS 3 Zrotation Yrotation Xrotation
				JOINT joint_17
				{
					OFFSET 171.701660 -44.751282 -77.782000
					CHANNELS 3 Zrotation Yrotation Xrotation
					End Site
					{
						OFFSET 0.000000 0.000000 0.000000
					}
				}
			}
		}
	}
	JOINT joint_18
	{
		OFFSET 17.854858 79.618652 -98.128052
		CHANNELS 3 Zrotation Yrotation Xrotation
		JOINT joint_19
		{
			OFFSET -24.848877 16.861816 -503.722992
			CHANNELS 3 Zrotation Yrotation Xrotation
			JOINT joint_20
			{
				OFFSET -30.162476 14.470093 -398.750008
				CHANNELS 3 Zrotation Yrotation Xrotation
				JOINT joint_21
				{
					OFFSET 176.096680 -10.987549 -80.021000
					CHANNELS 3 Zrotation Yrotation Xrotation
					End Site
					{
						OFFSET 0.000000 0.000000 0.000000
					}
				}
			}
		}
	}
}
MOTION
Frames: 12
Frame Time: 0.016667
-1800.993896 896.772522 1096.362061 -2.808088 0.757383 -0.863434 -0.486591 -1.984542 0.970313 -0.503348 0.328805 -0.266776 -0.501270 -0.394263 0.136573 0.299611 0.276427 -0.892498 0.000000 0.000000 0.000000 1.726094 1.523781 0.343444 -0.115889 1.919011 -0.140445 -0.051009 -0.980199 -0.620097 0.000000 0.000000 0.000000 1.154013 0.743681 0.942688 -0.055503 1.107479 -2.181471 0.218366 -1.269430 2.433390 0.000000 0.000000 0.000000 1.006400 0.910805 -0.606422 0.924949 -2.653206 0.960525 0.914832 -0.459000 0.294260 0.000000 0.000000 0.000000 2.531864 2.072524 1.730408 2.525697 -2.245343 -1.029465 2.410170 -1.300244 1.012298 0.000000 0.000000 0.000000 
-1801.317993 896.839050 1096.379028 -2.810296 0.737830 -0.865628 -0.483388 -1.974469 0.959008 -0.499749 0.326779 -0.263399 -0.497780 -0.392690 0.135301 0.300407 0.281541 -0.893821 0.000000 0.000000 0.000000 1.708765 1.531707 0.355704 -0.116444 1.926302 -0.142507 -0.051463 -0.981158 -0.624010 0.000000 0.000000 0.000000 1.163043 0.763819 0.934414 -0.054197 1.122434 -2.168752 0.218048 -1.281508 2.430409 0.000000 0.000000 0.000000 1.006975 0.908557 -0.609902 0.924747 -2.646192 0.965176 0.914538 -0.444399 0.297936 0.000000 0.000000 0.000000 2.533577 2.071550 1.731247 2.527713 -2.240211 -1.031215 2.412247 -1.285159 1.014210 0.000000 0.000000 0.000000 
-1801.638428 896.908936 1096.396973 -2.812572 0.718938 -0.867931 -0.479418 -1.965527 0.949737 -0.495507 0.324904 -0.261906 -0.493547 -0.389099 0.133888 0.300806 0.285496 -0.894155 0.000000 0.000000 0.000000 1.690131 1.539300 0.368831 -0.117082 1.933295 -0.145241 -0.051822 -0.983386 -0.627436 0.000000 0.000000 0.000000 1.170897 0.782435 0.926172 -0.052992 1.136295 -2.157312 0.217745 -1.293844 2.427593 0.000000 0.000000 0.000000 1.007417 0.905575 -0.613407 0.924403 -2.638780 0.969750 0.914104 -0.429662 0.301583 0.000000 0.000000 0.000000 2.535222 2.070313 1.731779 2.529619 -2.235627 -1.032606 2.414268 -1.270007 1.016101 0.000000 0.000000 0.000000 
-1801.959961 896.980652 1096.413940 -2.814085 0.699180 -0.869857 -0.475674 -1.952937 0.939334 -0.491442 0.321924 -0.258712 -0.489559 -0.386306 0.132221 0.301649 0.291983 -0.895304 0.000000 0.000000 0.000000 1.671991 1.546725 0.381232 -0.117719 1.940096 -0.148023 -0.051903 -0.986492 -0.628805 0.000000 0.000000 0.000000 1.180376 0.799964 0.917741 -0.051962 1.149115 -2.148020 0.217496 -1.305365 2.425396 0.000000 0.000000 0.000000 1.007653 0.903408 -0.616978 0.923934 -2.631017 0.973322 0.913523 -0.415390 0.305043 0.000000 0.000000 0.000000 2.536659 2.070103 1.731707 2.531230 -2.231320 -1.033672 2.416030 -1.255071 1.017860 0.000000 0.000000 0.000000 
-1802.277832 897.054810 1096.432007 -2.814771 0.680239 -0.871929 -0.471330 -1.941374 0.929843 -0.486829 0.318921 -0.256453 -0.484941 -0.382730 0.131382 0.302519 0.299964 -0.896185 0.000000 0.000000 0.000000 1.651633 1.554361 0.393579 -0.118424 1.946815 -0.151359 -0.051900 -0.990115 -0.629606 0.000000 0.000000 0.000000 1.187398 0.816678 0.908193 -0.050983 1.161499 -2.139658 0.217280 -1.317554 2.423559 0.000000 0.000000 0.000000 1.007526 0.900480 -0.620322 0.923129 -2.622848 0.976613 0.912601 -0.400926 0.308399 0.000000 0.000000 0.000000 2.537783 2.069288 1.731610 2.532542 -2.227459 -1.034880 2.417513 -1.240047 1.019498 0.000000 0.000000 0.000000 
-1802.589600 897.128601 1096.447998 -2.815528 0.661052 -0.873920 -0.467374 -1.929881 0.920303 -0.482596 0.316395 -0.254058 -0.480763 -0.380167 0.129840 0.302960 0.308846 -0.895481 0.000000 0.000000 0.000000 1.634103 1.562387 0.405938 -0.118992 1.954166 -0.153267 -0.052029 -0.993653 -0.631438 0.000000 0.000000 0.000000 1.195716 0.833283 0.899034 -0.050061 1.173702 -2.131781 0.217136 -1.327887 2.422492 0.000000 0.000000 0.000000 1.007591 0.898360 -0.623486 0.922592 -2.614921 0.979314 0.911935 -0.387251 0.311664 0.000000 0.000000 0.000000 2.539054 2.069369 1.731483 2.533961 -2.223894 -1.036130 2.419081 -1.225984 1.021113 0.000000 0.000000 0.000000 
-1802.887817 897.198608 1096.463013 -2.816615 0.642480 -0.875971 -0.463091 -1.922521 0.909369 -0.477891 0.314671 -0.250416 -0.476199 -0.377736 0.127675 0.303067 0.320093 -0.893148 0.000000 0.000000 0.000000 1.616817 1.571365 0.419080 -0.119479 1.962483 -0.154306 -0.052314 -0.995036 -0.634054 0.000000 0.000000 0.000000 1.201535 0.850410 0.888991 -0.049092 1.186533 -2.122960 0.217090 -1.335255 2.422425 0.000000 0.000000 0.000000 1.007813 0.896660 -0.626066 0.922323 -2.607704 0.981407 0.911497 -0.373825 0.314968 0.000000 0.000000 0.000000 2.540243 2.069968 1.731602 2.535275 -2.221063 -1.037445 2.420548 -1.212603 1.022639 0.000000 0.000000 0.000000 
-1803.179077 897.268372 1096.477051 -2.817215 0.623732 -0.877981 -0.458657 -1.915857 0.899162 -0.473118 0.314000 -0.248984 -0.471475 -0.376522 0.126884 0.302741 0.332123 -0.889246 0.000000 0.000000 0.000000 1.599254 1.580852 0.432138 -0.119874 1.971103 -0.154526 -0.052690 -0.995635 -0.637227 0.000000 0.000000 0.000000 1.206070 0.867503 0.878009 -0.048116 1.199309 -2.113747 0.217077 -1.341234 2.422706 0.000000 0.000000 0.000000 1.007952 0.895979 -0.628515 0.922018 -2.601150 0.983345 0.911017 -0.360881 0.318127 0.000000 0.000000 0.000000 2.541237 2.071385 1.731839 2.536382 -2.218466 -1.039080 2.421779 -1.199974 1.024009 0.000000 0.000000 0.000000 
-1803.471924 897.342957 1096.489990 -2.817447 0.604797 -0.880263 -0.454478 -1.905649 0.889069 -0.468588 0.311389 -0.245473 -0.467037 -0.373030 0.124975 0.302153 0.342527 -0.884898 0.000000 0.000000 0.000000 1.582664 1.588728 0.444464 -0.120263 1.978231 -0.155176 -0.053008 -0.997000 -0.640099 0.000000 0.000000 0.000000 1.209577 0.882737 0.867181 -0.047250 1.210603 -2.105586 0.217038 -1.346957 2.422661 0.000000 0.000000 0.000000 1.007891 0.895128 -0.631344 0.921382 -2.593891 0.986340 0.910298 -0.348573 0.321012 0.000000 0.000000 0.000000 2.542114 2.072216 1.732051 2.537427 -2.214491 -1.040541 2.422885 -1.188138 1.025274 0.000000 0.000000 0.000000 
-1803.773438 897.425781 1096.503052 -2.817798 0.585640 -0.882948 -0.451300 -1.889923 0.880969 -0.465234 0.308507 -0.243429 -0.463669 -0.369351 0.124191 0.301856 0.351830 -0.881745 0.000000 0.000000 0.000000 1.569392 1.593649 0.456703 -0.120855 1.983407 -0.158378 -0.053094 -0.998577 -0.641156 0.000000 0.000000 0.000000 1.215766 0.896288 0.854698 -0.046408 1.219222 -2.096213 0.216726 -1.353268 2.419661 0.000000 0.000000 0.000000 1.007958 0.893582 -0.634839 0.920689 -2.585793 0.990688 0.909604 -0.336264 0.323908 0.000000 0.000000 0.000000 2.543155 2.071670 1.732355 2.538780 -2.208155 -1.042352 2.424155 -1.176933 1.026575 0.000000 0.000000 0.000000 
-1804.076538 897.513428 1096.515015 -2.817535 0.566255 -0.885463 -0.448421 -1.871064 0.872793 -0.462159 0.305099 -0.239961 -0.460653 -0.364634 0.122135 0.301112 0.359014 -0.877669 0.000000 0.000000 0.000000 1.555776 1.596898 0.468937 -0.121480 1.986992 -0.162445 -0.053013 -1.000772 -0.641009 0.000000 0.000000 0.000000 1.221398 0.907948 0.842733 -0.045688 1.226279 -2.087717 0.216354 -1.358645 2.415972 0.000000 0.000000 0.000000 1.007994 0.891992 -0.639314 0.919774 -2.577060 0.996283 0.908809 -0.325366 0.326392 0.000000 0.000000 0.000000 2.543921 2.070581 1.732226 2.539901 -2.200411 -1.044157 2.425117 -1.166642 1.027681 0.000000 0.000000 0.000000 
-1804.376953 897.605347 1096.529053 -2.817981 0.547064 -0.887883 -0.445783 -1.850877 0.867878 -0.459570 0.300447 -0.239248 -0.457890 -0.358210 0.122106 0.300762 0.364235 -0.875321 0.000000 0.000000 0.000000 1.543599 1.599191 0.480119 -0.122169 1.989820 -0.167177 -0.053062 -1.003938 -0.642130 0.000000 0.000000 0.000000 1.227098 0.918914 0.830708 -0.045092 1.232928 -2.081018 0.216043 -1.363414 2.412908 0.000000 0.000000 0.000000 1.008216 0.889777 -0.644058 0.919017 -2.567226 1.001667 0.908178 -0.314436 0.328957 0.000000 0.000000 0.000000 2.545112 2.069308 1.731281 2.541382 -2.192197 -1.045013 2.426474 -1.156536 1.028954 0.000000 0.000000 0.000000 
